<svg width="196" height="255" viewBox="0 0 196 255" fill="none" xmlns="http://www.w3.org/2000/svg">
<g clip-path="url(#clip0_2_14)">
<path d="M196 0H0V196H196V0Z" fill="#0E0E0F"/>
<path d="M62.3831 123.327H45.7537L69.0287 72.6731H85.8419L62.3831 123.327Z" fill="white"/>
<path d="M94.57 123.327H77.9406L101.246 72.6731H118.059L94.57 123.327Z" fill="white"/>
<path d="M126.788 123.327H110.158L133.433 72.6731H150.246L126.788 123.327Z" fill="white"/>
</g>
<path d="M7.48 247L16.44 224.408H20.984L29.848 247H24.536L17.752 228.248H19.576L12.696 247H7.48ZM12.568 242.904V238.808H24.888V242.904H12.568ZM32.2385 247V224.408H35.7585L37.2625 228.92V247H32.2385ZM47.8225 247L34.5105 229.944L35.7585 224.408L49.0705 241.464L47.8225 247ZM47.8225 247L46.4785 242.488V224.408H51.5025V247H47.8225ZM55.8635 247V224.408H60.8875V247H55.8635ZM75.1723 238.776V234.872H80.0363C80.6549 234.872 81.2203 234.744 81.7323 234.488C82.2443 234.232 82.6496 233.859 82.9483 233.368C83.2469 232.877 83.3963 232.28 83.3963 231.576C83.3963 230.893 83.2469 230.307 82.9483 229.816C82.6496 229.325 82.2443 228.952 81.7323 228.696C81.2203 228.44 80.6549 228.312 80.0363 228.312H75.1723V224.408H80.7723C82.2016 224.408 83.4923 224.696 84.6443 225.272C85.7963 225.848 86.7029 226.68 87.3643 227.768C88.0469 228.835 88.3883 230.104 88.3883 231.576C88.3883 233.048 88.0469 234.328 87.3643 235.416C86.7029 236.483 85.7963 237.315 84.6443 237.912C83.4923 238.488 82.2016 238.776 80.7723 238.776H75.1723ZM71.3323 247V224.408H76.3563V247H71.3323ZM87.98 247L96.94 224.408H101.484L110.348 247H105.036L98.252 228.248H100.076L93.196 247H87.98ZM93.068 242.904V238.808H105.388V242.904H93.068ZM116.579 238.776V234.872H121.443C122.061 234.872 122.627 234.744 123.139 234.488C123.651 234.232 124.056 233.859 124.355 233.368C124.653 232.877 124.803 232.28 124.803 231.576C124.803 230.893 124.653 230.307 124.355 229.816C124.056 229.325 123.651 228.952 123.139 228.696C122.627 228.44 122.061 228.312 121.443 228.312H116.579V224.408H122.179C123.608 224.408 124.899 224.696 126.051 225.272C127.203 225.848 128.109 226.68 128.771 227.768C129.453 228.835 129.795 230.104 129.795 231.576C129.795 233.048 129.453 234.328 128.771 235.416C128.109 236.483 127.203 237.315 126.051 237.912C124.899 238.488 123.608 238.776 122.179 238.776H116.579ZM112.739 247V224.408H117.763V247H112.739ZM132.614 247V224.408H137.638V247H132.614ZM136.454 247V242.648H148.838V247H136.454ZM136.454 237.56V233.368H147.718V237.56H136.454ZM136.454 228.728V224.408H148.678V228.728H136.454ZM156.141 237.688V233.976H160.909C161.912 233.976 162.68 233.72 163.213 233.208C163.768 232.696 164.045 232.003 164.045 231.128C164.045 230.317 163.778 229.645 163.245 229.112C162.712 228.579 161.944 228.312 160.941 228.312H156.141V224.408H161.517C163.01 224.408 164.322 224.696 165.453 225.272C166.584 225.827 167.469 226.605 168.109 227.608C168.749 228.611 169.069 229.763 169.069 231.064C169.069 232.387 168.749 233.549 168.109 234.552C167.469 235.533 166.573 236.301 165.421 236.856C164.269 237.411 162.914 237.688 161.357 237.688H156.141ZM152.301 247V224.408H157.325V247H152.301ZM164.589 247L157.549 237.272L162.157 236.024L170.541 247H164.589ZM178.96 247.352C177.104 247.352 175.504 247.053 174.16 246.456C172.837 245.837 171.621 244.909 170.512 243.672L173.776 240.44C174.501 241.272 175.301 241.923 176.176 242.392C177.072 242.84 178.107 243.064 179.28 243.064C180.347 243.064 181.168 242.872 181.744 242.488C182.341 242.104 182.64 241.571 182.64 240.888C182.64 240.269 182.448 239.768 182.064 239.384C181.68 239 181.168 238.669 180.528 238.392C179.909 238.115 179.216 237.848 178.448 237.592C177.701 237.336 176.955 237.048 176.208 236.728C175.461 236.387 174.768 235.971 174.128 235.48C173.509 234.968 173.008 234.339 172.624 233.592C172.24 232.824 172.048 231.864 172.048 230.712C172.048 229.325 172.379 228.131 173.04 227.128C173.723 226.125 174.661 225.368 175.856 224.856C177.051 224.323 178.427 224.056 179.984 224.056C181.563 224.056 183.003 224.333 184.304 224.888C185.627 225.443 186.715 226.2 187.568 227.16L184.304 230.392C183.621 229.688 182.928 229.165 182.224 228.824C181.541 228.483 180.763 228.312 179.888 228.312C179.013 228.312 178.32 228.483 177.808 228.824C177.296 229.144 177.04 229.613 177.04 230.232C177.04 230.808 177.232 231.277 177.616 231.64C178 231.981 178.501 232.28 179.12 232.536C179.76 232.792 180.453 233.048 181.2 233.304C181.968 233.56 182.725 233.859 183.472 234.2C184.219 234.541 184.901 234.979 185.52 235.512C186.16 236.024 186.672 236.685 187.056 237.496C187.44 238.285 187.632 239.267 187.632 240.44C187.632 242.595 186.864 244.291 185.328 245.528C183.792 246.744 181.669 247.352 178.96 247.352Z" fill="white"/>
<defs>
<clipPath id="clip0_2_14">
<rect width="196" height="196" fill="white"/>
</clipPath>
</defs>
</svg>
